<?xml version="1.0" encoding="UTF-8"?><svg id="a" xmlns="http://www.w3.org/2000/svg" width="65" height="29" viewBox="0 0 65 29"><path d="m16.21,12.5c3.36,0,6.09-2.72,6.09-6.09S19.57.31,16.21.31s-6.09,2.74-6.09,6.1,2.72,6.09,6.09,6.09Zm0-9.33c1.72,0,3.11,1.52,3.11,3.24s-1.4,3.31-3.11,3.31-3.11-1.59-3.11-3.31,1.4-3.24,3.11-3.24Z" fill="#007737"/><path d="m59.85.38c-1.36,0-2.58.55-3.49,1.43-.88-.88-2.12-1.43-3.49-1.43-2.73,0-4.96,2.19-4.96,4.94v5.66c0,.83.66,1.49,1.47,1.49s1.49-.65,1.49-1.49v-5.72c0-1.06.88-1.98,1.96-1.98s2.05.88,2.05,2v5.7c0,.78.64,1.49,1.42,1.49.85,0,1.54-.62,1.54-1.49v-5.72c0-1.06.87-1.98,1.96-1.98s2.05.88,2.05,2v5.7c0,.83.65,1.49,1.47,1.49s1.47-.65,1.47-1.49v-5.66c0-2.73-2.21-4.94-4.95-4.94Z" fill="#007737"/><path d="m41.27,12.39c2.72,0,5.01-2.23,5.01-4.97V1.83c0-.81-.67-1.49-1.49-1.49s-1.49.67-1.49,1.49v5.7c-.02,1.11-.92,2.02-2.04,2.02s-2.02-.9-2.03-2.02V1.83c0-.81-.67-1.49-1.49-1.49s-1.49.67-1.49,1.49v5.59c.02,2.74,2.26,4.97,5.01,4.97Z" fill="#007737"/><path d="m32.15,8.45l.12-.11c.88-.87,1.38-2.09,1.38-3.36,0-2.72-2.3-4.53-4.88-4.53h-3.61c-.78,0-1.45.67-1.45,1.45v9.04c0,.8.65,1.45,1.45,1.45s1.47-.65,1.47-1.45v-1.42c.14,0,2.78-.04,2.78-.04l1.66,2.34c.3.37.74.57,1.19.57.87,0,1.42-.74,1.42-1.45,0-.3-.09-.62-.28-.87l-1.24-1.63Zm-3.27-1.54h-2.25v-3.63h2.14c.97,0,1.96.6,1.96,1.63,0,1.29-.76,2-1.86,2Z" fill="#007737"/><path d="m7.51,6.39c0-.8-.64-1.4-1.45-1.4h-2.92v-1.77h4.64c.81,0,1.49-.6,1.49-1.4s-.67-1.43-1.49-1.43H1.67C1.01.4.2.94.2,1.7v9.22c0,.83.65,1.49,1.47,1.49s1.47-.65,1.47-1.49v-3.11h2.92c.81,0,1.45-.6,1.45-1.42Z" fill="#007737"/><path d="m10.82,16.64h-6.11c-.65,0-1.47.55-1.47,1.31v9.22c0,.83.65,1.49,1.47,1.49s1.47-.65,1.47-1.49v-3.11h2.92c.81,0,1.45-.6,1.45-1.42s-.64-1.4-1.45-1.4h-2.92v-1.77h4.64c.81,0,1.49-.6,1.49-1.4s-.67-1.43-1.49-1.43Z" fill="#007737"/><path d="m17.84,19.93h-.14c-2.69,0-4.48,2.11-4.48,4.74v2.51c0,.83.69,1.47,1.52,1.47s1.43-.67,1.43-1.47v-2.64c0-1.24.51-1.79,1.66-1.79.81,0,1.47-.53,1.47-1.34s-.65-1.49-1.47-1.49Z" fill="#007737"/><path d="m38.52,19.93c-2.41,0-4.35,1.95-4.35,4.35v2.88c0,.81.65,1.47,1.47,1.47s1.49-.65,1.49-1.47v-2.99c0-.78.62-1.4,1.4-1.4s1.4.62,1.4,1.4v2.99c0,.81.65,1.47,1.49,1.47s1.47-.65,1.47-1.47v-2.88c0-2.41-1.98-4.35-4.35-4.35Z" fill="#007737"/><path d="m51.19,18.04c-.81,0-1.47.65-1.47,1.47v.67c-.46-.16-.92-.25-1.42-.25-2.41,0-4.35,1.95-4.35,4.35s1.95,4.37,4.35,4.37,4.37-1.95,4.37-4.37v-4.78c0-.81-.65-1.47-1.49-1.47Zm-2.88,7.73c-.78,0-1.4-.69-1.4-1.49s.62-1.47,1.4-1.47,1.4.69,1.4,1.47-.64,1.49-1.4,1.49Z" fill="#007737"/><path d="m21.87,19.95c-.81,0-1.47.65-1.47,1.49v5.73c0,.83.65,1.49,1.47,1.49s1.49-.65,1.49-1.49v-5.73c0-.83-.67-1.49-1.49-1.49Z" fill="#007737"/><path d="m60.27,19.93c-2.19,0-3.22,1.73-3.7,3.26-.51,1.22-.32,2.3-1.42,2.51-.81,0-1.49.67-1.49,1.47,0,1.01.81,1.5,1.7,1.5,1.81,0,3.22-1.66,3.61-3.27.51-1.56.71-2.41,1.29-2.51.81,0,1.49-.65,1.49-1.47s-.67-1.49-1.49-1.49Z" fill="#007737"/><path d="m21.87,15.74c-.81,0-1.47.65-1.47,1.45s.65,1.49,1.47,1.49,1.49-.65,1.49-1.49-.67-1.45-1.49-1.45Z" fill="#007737"/><path d="m28.99,19.93c-2.41,0-4.34,1.95-4.34,4.35,0,2.64,2.11,4.41,4.67,4.41.88,0,1.72-.5,1.72-1.47,0-.67-.58-1.4-1.4-1.4h-.65c-.76,0-1.4-.76-1.4-1.54s.64-1.5,1.4-1.5c.3,0,.53.11.74.3-.57.12-1.03.65-1.03,1.27,0,.65.6,1.22,1.15,1.22h1.03c1.52,0,2.19-.62,2.19-1.93v-.16c-.14-2.04-2.02-3.56-4.09-3.56Z" fill="#007737"/></svg>