<svg id="レイヤー_1" xmlns="http://www.w3.org/2000/svg" viewBox="0 0 71.4 52.8"><style>.st0{fill:#007737}.st1{fill:#fff}</style><g id="XMLID_1825_"><path id="XMLID_1820_" class="st0" d="M1 1.2c22.3 9.2 47.4 9.2 69.7 0v50.9H1V1.2z"/><path id="XMLID_1896_" class="st1" d="M19.9 23.2c0-2.3 1.8-4.2 4.3-4.2s4.2 1.8 4.2 4.1-1.8 4.1-4.3 4.1c-2.5.1-4.2-1.7-4.2-4m6.6 0c0-1.4-1-2.5-2.4-2.5s-2.4 1.1-2.4 2.5 1 2.5 2.4 2.5c1.5 0 2.4-1.1 2.4-2.5"/><path id="XMLID_1816_" class="st1" d="M42.5 23.8v-4.6h1.8v4.5c0 1.3.7 2 1.7 2 1.1 0 1.7-.7 1.7-1.9v-4.6h1.8v4.5c0 2.4-1.4 3.6-3.5 3.6-2.2 0-3.5-1.2-3.5-3.5"/><path id="XMLID_1815_" class="st1" d="M53.3 19.2h1.9l2.1 3.4 2.1-3.4h1.9v8h-1.7V22l-2.3 3.4L55 22v5.2h-1.7z"/><path id="XMLID_1814_" class="st1" d="M20.3 32.3h.9v4h-.9z"/><path id="XMLID_1812_" class="st1" d="M27.8 32.3h.8l1.9 2.5v-2.5h.8v4h-.7l-1.9-2.5v2.5h-.9z"/><path id="XMLID_1805_" class="st1" d="M46.8 32.3h.9l1.1 1.7 1.1-1.7h.9v4h-.9v-2.6l-1.1 1.7-1.1-1.7v2.6h-.9z"/><path id="XMLID_1723_" class="st1" d="M10.7 41.2h.8l1.9 2.5v-2.5h.8v4h-.7l-2-2.5v2.5h-.8z"/><path id="XMLID_1884_" class="st1" d="M42.2 43.2c0-1.2.9-2.1 2.1-2.1 1.2 0 2.1.9 2.1 2.1 0 1.1-.9 2.1-2.1 2.1-1.3 0-2.1-.9-2.1-2.1m3.3 0c0-.7-.5-1.3-1.2-1.3s-1.2.6-1.2 1.2c0 .7.5 1.3 1.2 1.3.7.1 1.2-.5 1.2-1.2"/><path id="XMLID_828_" class="st1" d="M16 20.8c.4 0 .8-.4.8-.8s-.4-.8-.8-.8h-5.3v8h1.8v-3.1h3c.4 0 .8-.4.8-.8s-.4-.8-.8-.8h-3v-1.7H16z"/><path id="XMLID_680_" class="st1" d="M13.8 35.2c-.1 0-.2 0-.2.1l-.1.1c-.2.2-.5.3-.8.3-.7 0-1.2-.6-1.2-1.3 0-.7.5-1.2 1.2-1.2.3 0 .6.1.8.3 0 0 .1 0 .1.1 0 0 .1 0 .2.1h.1c.2 0 .4-.2.4-.4v-.1c0-.1-.1-.1-.1-.2l-.1-.1c-.3-.3-.7-.4-1.4-.4-1.2 0-2.1.9-2.1 2.1 0 1.2.9 2.1 2.1 2.1.6 0 1-.2 1.4-.4 0 0 .1 0 .1-.1.1-.1.1-.2.1-.3-.1-.5-.3-.7-.5-.7"/><path id="XMLID_143_" class="st1" d="M40.3 35.5h-1.8v-.8H40c.2 0 .4-.2.4-.4s-.2-.4-.4-.4h-1.5v-.8h1.8c.2 0 .4-.2.4-.4s-.2-.4-.4-.4h-2.6v4h2.7c.2 0 .4-.2.4-.4s-.3-.4-.5-.4"/><path id="XMLID_58_" class="st1" d="M21.4 44.4h-1.8v-.8h1.5c.2 0 .4-.2.4-.4s-.2-.4-.4-.4h-1.5V42h1.8c.2 0 .4-.2.4-.4s-.2-.4-.4-.4h-2.6v4h2.7c.2 0 .4-.2.4-.4s-.3-.4-.5-.4"/><path id="XMLID_56_" class="st1" d="M28.9 41.2H26v.8h1.2v3.2h.9V42h.8c.2 0 .4-.2.4-.4s-.2-.4-.4-.4"/><path id="XMLID_1858_" class="st1" d="M38.7 21.8c0-.8-.2-1.4-.7-1.9-.5-.5-1.3-.8-2.3-.8H32v8h1.8v-2.6h1.4l1.6 2.4.1.1c.2.1.4.2.6.2.2 0 .4-.1.6-.2.2-.2.3-.4.3-.6 0-.2-.1-.3-.1-.5L37 24.3c1-.4 1.7-1.2 1.7-2.5m-1.8.1c0 .7-.5 1.1-1.4 1.1h-1.8v-2.3h1.8c.9.1 1.4.4 1.4 1.2z"/><path id="XMLID_1854_" class="st1" d="M53.5 42.6c0-.4-.1-.7-.3-.9-.3-.3-.7-.4-1.2-.4h-1.8v4h.9V44h.7l.8 1.2.1.1c.1.1.2.1.3.1.1 0 .2 0 .3-.1.1-.1.1-.2.1-.3 0-.1 0-.2-.1-.2l-.6-.9c.5-.3.8-.7.8-1.3m-.9 0c0 .3-.2.6-.7.6H51V42h.9c.5 0 .7.2.7.6z"/><path id="XMLID_1842_" class="st1" d="M60.9 35.9l-1.5-3.6h-.8l-1.7 4h.9l.4-.9h1.7l.3.8c0 .1.1.1.1.1.1.1.2.1.3.1.1 0 .2 0 .3-.1.1-.1.1-.2.1-.3l-.1-.1m-2.5-1.3l.5-1.3.5 1.3h-1z"/><path id="XMLID_26_" class="st1" d="M38.9 41.2c-.1-.1-.2-.1-.3-.1-.1 0-.2 0-.3.1l-.1.1-.8 2.6-.9-2.7h-.8l-.9 2.7-.8-2.7h-.9l1.4 4h.8l.9-2.6.9 2.6h.8l1.2-3.6v-.1c-.1-.1-.1-.2-.2-.3"/><path id="XMLID_23_" class="st1" d="M60.9 44.7l-1.3-1.8 1.2-1.2c.1-.1.1-.2.1-.2 0-.1 0-.2-.1-.3-.1-.1-.2-.1-.3-.1-.1 0-.2.1-.3.1L58.5 43v-1.8h-.9v4h.9V44l.5-.5s1.2 1.7 1.3 1.7c.1.1.2.1.3.1.1 0 .2 0 .3-.1.1-.1.1-.2.1-.3 0-.1-.1-.1-.1-.2"/></g></svg>