<svg xmlns="http://www.w3.org/2000/svg" viewBox="0 0 410.3 31.5"><style>.st0{fill:#353535}.st1{fill:#007737}.st2{fill-rule:evenodd;clip-rule:evenodd}.st2,.st3{fill:#1c509b}</style><g id="レイヤー_1"><path id="XMLID_1977_" class="st0" d="M247.5 0h1.4v31h-1.4z"/></g><g id="design"><g id="XMLID_49_"><path id="XMLID_65_" class="st1" d="M193 10.3v14h-6.4V2.6h-3.9v21.7h-6.3v-14h-3.9v17.9h24.3V10.3z"/><g id="XMLID_58_"><path id="XMLID_62_" class="st1" d="M202 4.5c0 1.1.9 1.9 1.9 1.9h1.4v6.4h-1.4c-1.1 0-1.9.9-1.9 1.9 0 1.1.9 1.9 1.9 1.9h1.4v3.8c0 1.1-.1 2.2-.4 3.3-.3 1.5-.9 3-1.7 4.3h4.3c1.1-2.4 1.6-5 1.6-7.7v-3.8h3.1V28h3.8V16.7h2.6v-3.8H216V6.5h2.6V2.6h-14.7c-1 0-1.9.9-1.9 1.9zm7.2 2h3.1v6.4h-3.1V6.5z"/><path id="XMLID_61_" class="st1" d="M221.3 11.4c.3 0 .7-.1 1-.2.1 0 .2-.1.2-.1 1.7-1 3.4-2.1 5.1-3.3V2.7c-2.3 1.8-4.8 3.5-7.4 5-.1.1-.2.1-.2.2-.4.4-.7.9-.7 1.5s.3 1.1.7 1.5c.2.2.7.5 1.3.5z"/><path id="XMLID_60_" class="st1" d="M220.1 16c-.1.1-.2.1-.3.2-.4.4-.7.9-.7 1.5s.3 1.1.7 1.5c.4.3.9.6 1.4.6.3 0 .7-.1 1-.2.1 0 .2-.1.2-.1 1.7-1 3.4-2.1 5.1-3.3v-5.1c-2.3 1.8-4.8 3.4-7.4 4.9z"/><path id="XMLID_59_" class="st1" d="M220.1 24.4c-.1.1-.2.1-.3.2-.4.4-.7.9-.7 1.5s.3 1.1.7 1.5c.4.3.9.6 1.4.6.3 0 .7-.1 1-.2.1 0 .2-.1.2-.1 1.7-1 3.4-2.1 5.1-3.3v-5.1c-2.3 1.8-4.8 3.4-7.4 4.9z"/></g><g id="XMLID_50_"><path id="XMLID_57_" class="st1" d="M3.1.1C1.4.1 0 1.4 0 3.1s1.4 3.1 3.1 3.1h21.5v6.1c0 7.3-3.7 12.3-9.2 12.3H3.1C1.4 24.6 0 26 0 27.7c0 1.7 1.4 3.1 3.1 3.1h12.3c9 0 15.3-7.6 15.3-18.4V.1H3.1z"/><path id="XMLID_56_" class="st1" d="M59.3 8.2v-3h-6.1v3.1H38.8c-1.7 0-3.1 1.4-3.1 3.1s1.4 3.1 3.1 3.1h8.7L33.9 25.3c-.7.6-1.1 1.4-1.1 2.4 0 1.7 1.4 3.1 3.1 3.1.7 0 1.4-.3 1.9-.7l15.3-12.3v13h6.1V14.4h3.1V8.2h-3z"/><path id="XMLID_55_" class="st1" d="M68.9 15.4c-1.7 0-3.1 1.4-3.1 3.1 0 1.7 1.4 3.1 3.1 3.1h27.6v-6.1H68.9z"/><g id="XMLID_52_"><path id="XMLID_54_" class="st1" d="M102.8 8.2c-1.7 0-3.1 1.4-3.1 3.1 0 1.7 1.4 3.1 3.1 3.1h21.5v2.4c0 4.7-3.6 7.8-9.2 7.8h-12.3c-1.7 0-3.1 1.4-3.1 3.1 0 1.7 1.4 3.1 3.1 3.1H115c9 0 15.3-5.7 15.3-13.9V8.2h-27.5z"/><path id="XMLID_53_" class="st1" d="M102.8.1c-1.7 0-3.1 1.4-3.1 3.1s1.4 3.1 3.1 3.1h27.6V.1h-27.6z"/></g><path id="XMLID_51_" class="st1" d="M160 18.5h-6.1l1.9 6.1h-14.5L151 .1h-6.1l-10.8 26c-.1.2-.2.5-.3.8-.1.3-.1.5-.1.8 0 1.7 1.4 3.1 3.1 3.1h27.6L160 18.5z"/></g></g><g id="XMLID_34_"><g id="XMLID_46_"><path id="XMLID_48_" class="st2" d="M307.9.1h27.4v6.5h-27.4z"/><path id="XMLID_47_" class="st2" d="M307.9 9.7h27.4c0 7.6.8 15.3-4.3 18.3-4.7 2.8-12.2 2.4-19.4 2.7v-6.4c7.6-.4 17.4 1 16.9-8.2h-20.7V9.7z"/></g><g id="XMLID_42_"><path id="XMLID_43_" class="st3" d="M274.3 14.9c-1.1-4.2-3.1-10.5-4.8-14.8h7.2c1.5 3.7 3.9 10.6 5 14.8h-7.4zm2.1 15.8v-6.6c10.3-1.8 16.5-8.6 16.6-24h7.2c-.1 19.6-9.7 29.1-23.8 30.6z"/></g><g id="XMLID_38_"><path id="XMLID_39_" class="st3" d="M344.7 19.2V.1h7.2v19.1h-7.2zm3.9 11.5v-6.4c11.4-.6 16.4-3 16.4-13V.1h7.3v11.5c0 14.5-9.3 19.1-23.7 19.1z"/></g><g id="XMLID_35_"><path id="XMLID_36_" class="st3" d="M397.5 21.6c-5.2 5.1-12.1 8.2-18.1 9.1V24c7.7-1.9 16-8.6 18.2-17.4h-16.3V.1h24.8c-.1 5.7-1.6 11.4-4 15.5 1.6 4.2 5.1 6.3 7.9 7.6v7.3c-5.5-1.3-9.9-4.6-12.5-8.9z"/></g></g></g></svg>