<svg xmlns="http://www.w3.org/2000/svg" viewBox="0 0 25.6 25.7"><style>.st0{fill:#353535}</style><g id="Layer_1"><g id="XMLID_2633_"><path id="XMLID_2698_" class="st0" d="M12.8 0C5.7 0 0 5.7 0 12.8c0 7 5.7 12.8 12.8 12.8 7 0 12.8-5.7 12.8-12.8C25.5 5.7 19.8 0 12.8 0zm0 22.3c-5.3 0-9.6-4.3-9.6-9.6s4.3-9.6 9.6-9.6 9.6 4.3 9.6 9.6c-.1 5.3-4.4 9.6-9.6 9.6z"/><path id="XMLID_2692_" class="st0" d="M14.1 19.5h-2.6v-7.9L8 8.1l1.8-1.8 4.3 4.3z"/><path id="XMLID_2685_" transform="rotate(45 14.81 9.254)" class="st0" d="M13.5 6.2h2.6v6.1h-2.6z"/><path id="XMLID_2678_" class="st0" d="M7.4 10.9h10.8v2.6H7.4z"/><path id="XMLID_2666_" class="st0" d="M7.4 14.9h10.8v2.6H7.4z"/></g></g></svg>