<svg xmlns="http://www.w3.org/2000/svg" viewBox="0 0 32.3 25.3"><style>.st0{fill:#353535}</style><g id="Capa_1"><path id="XMLID_1945_" class="st0" d="M30.3 11.8v.7L25 14.8V13c1.3-1.4 2.1-3.2 2.1-5.2 0-4.2-3.4-7.6-7.6-7.6-2.3 0-4.3 1-5.7 2.6C12.4 1.2 10.4.2 8.1.2 3.9.2.5 3.6.5 7.8c0 1.8.6 3.5 1.7 4.8H.5v2.1H3v10.2h22V20l5.3 2.3v.7h1.3V11.8h-1.3zm-22.2-.6c-1.9 0-3.4-1.5-3.4-3.4s1.5-3.4 3.4-3.4 3.4 1.5 3.4 3.4-1.5 3.4-3.4 3.4zm11.4 0c-1.9 0-3.4-1.5-3.4-3.4s1.5-3.4 3.4-3.4 3.4 1.5 3.4 3.4-1.5 3.4-3.4 3.4z"/></g></svg>